<?xml version="1.0" standalone="no"?>
<!DOCTYPE svg PUBLIC "-//W3C//DTD SVG 20010904//EN"
 "http://www.w3.org/TR/2001/REC-SVG-20010904/DTD/svg10.dtd">
<svg version="1.0" xmlns="http://www.w3.org/2000/svg"
 width="83.000000pt" height="87.000000pt" viewBox="0 0 83.000000 87.000000"
 preserveAspectRatio="xMidYMid meet">

<g transform="translate(0.000000,87.000000) scale(0.100000,-0.100000)"
fill="#000000" stroke="none">
<path d="M80 591 c-5 -11 -10 -38 -10 -61 0 -90 60 -175 212 -301 77 -64 115
-103 128 -130 14 -34 19 -37 29 -25 23 27 40 102 32 138 -12 51 -26 72 -81
118 -28 23 -62 62 -76 86 -31 53 -48 48 -41 -12 3 -26 0 -44 -5 -44 -6 0 -32
16 -59 36 -53 39 -53 37 -33 132 2 12 0 22 -6 22 -6 0 -15 -10 -20 -22 -9 -20
-10 -17 -7 15 3 43 -8 48 -25 12 -15 -32 -31 -13 -22 28 7 32 -1 35 -16 8z"/>
</g>
</svg>
